<?xml version="1.0" encoding="utf-8"?>
<!-- Generator: Adobe Illustrator 15.0.0, SVG Export Plug-In  -->
<!DOCTYPE svg PUBLIC "-//W3C//DTD SVG 1.1//EN" "http://www.w3.org/Graphics/SVG/1.1/DTD/svg11.dtd" [
	<!ENTITY ns_flows "http://ns.adobe.com/Flows/1.0/">
]>
<svg version="1.1"
	 xmlns="http://www.w3.org/2000/svg" xmlns:xlink="http://www.w3.org/1999/xlink" xmlns:a="http://ns.adobe.com/AdobeSVGViewerExtensions/3.0/"
	 x="0px" y="0px" width="380px" height="100px" viewBox="-38.708 92.666 380 100" enable-background="new -38.708 92.666 380 100"
	 xml:space="preserve">
<defs>
</defs>
<rect x="17.453" y="160.354" fill="#2D2D2D" width="10.104" height="29.973"/>
<polygon fill="#2D2D2D" points="61.982,160.354 61.982,190.326 53.674,190.326 42.287,176.709 42.287,190.326 32.438,190.326 
	32.438,160.354 40.745,160.354 52.135,173.973 52.135,160.354 "/>
<g>
	<defs>
		<rect id="SVGID_1_" width="302.585" height="302.584"/>
	</defs>
	<clipPath id="SVGID_2_">
		<use xlink:href="#SVGID_1_"  overflow="visible"/>
	</clipPath>
	<path clip-path="url(#SVGID_2_)" fill="#2D2D2D" d="M73.885,189c-2.569-1.34-4.583-3.205-6.037-5.586
		c-1.457-2.387-2.183-5.076-2.183-8.074c0-2.996,0.726-5.688,2.183-8.068c1.454-2.385,3.468-4.246,6.037-5.592
		c2.569-1.342,5.466-2.012,8.692-2.012c3.225,0,6.124,0.67,8.693,2.012c2.569,1.346,4.58,3.207,6.037,5.592
		c1.457,2.381,2.184,5.072,2.184,8.068c0,2.998-0.727,5.688-2.184,8.074c-1.457,2.381-3.467,4.246-6.037,5.586
		s-5.468,2.012-8.693,2.012C79.351,191.012,76.454,190.34,73.885,189 M85.981,181.912c1.011-0.611,1.82-1.482,2.418-2.611
		c0.601-1.125,0.899-2.445,0.899-3.961c0-1.51-0.299-2.83-0.899-3.961c-0.598-1.127-1.407-1.994-2.418-2.609
		c-1.014-0.613-2.149-0.922-3.405-0.922c-1.256,0-2.392,0.309-3.403,0.922c-1.015,0.615-1.822,1.482-2.42,2.609
		c-0.6,1.131-0.899,2.451-0.899,3.961c0,1.516,0.299,2.836,0.899,3.961c0.599,1.129,1.405,2,2.42,2.611
		c1.012,0.615,2.147,0.924,3.403,0.924C83.832,182.836,84.967,182.527,85.981,181.912"/>
	<polygon clip-path="url(#SVGID_2_)" fill="#2D2D2D" points="134.129,160.354 121.454,190.326 111.521,190.326 98.846,160.354 
		109.723,160.354 116.872,177.865 124.196,160.354 	"/>
	<path clip-path="url(#SVGID_2_)" fill="#2D2D2D" d="M154.466,185.102h-11.39l-2.011,5.225h-10.276l13.101-29.973h9.938
		l13.098,29.973H156.48L154.466,185.102z M151.686,177.826l-2.91-7.537l-2.916,7.537H151.686z"/>
	<path clip-path="url(#SVGID_2_)" fill="#00B07C" d="M175.062,189.021c-2.541-1.33-4.531-3.182-5.975-5.566
		c-1.441-2.385-2.162-5.088-2.162-8.115c0-3.023,0.721-5.729,2.162-8.113c1.443-2.381,3.434-4.236,5.975-5.566
		c2.541-1.328,5.393-1.992,8.561-1.992c2.912,0,5.508,0.518,7.795,1.543c2.283,1.025,4.168,2.514,5.652,4.453l-6.379,5.695
		c-1.857-2.342-4.041-3.512-6.555-3.512c-2.109,0-3.811,0.68-5.094,2.035s-1.926,3.174-1.926,5.457c0,2.287,0.643,4.104,1.926,5.459
		c1.283,1.357,2.984,2.037,5.094,2.037c2.514,0,4.697-1.174,6.555-3.512l6.379,5.693c-1.484,1.945-3.369,3.428-5.652,4.455
		c-2.287,1.023-4.883,1.539-7.795,1.539C180.455,191.012,177.603,190.346,175.062,189.021"/>
	<path clip-path="url(#SVGID_2_)" fill="#00B07C" d="M212.826,182.793h-2.74v7.533H199.98v-29.971h14.428
		c2.771,0,5.182,0.459,7.238,1.369c2.053,0.916,3.641,2.23,4.75,3.939c1.111,1.717,1.672,3.711,1.672,5.992
		c0,2.143-0.484,4.014-1.455,5.611c-0.971,1.602-2.369,2.871-4.195,3.811l6.291,9.248h-10.789L212.826,182.793z M216.851,169.066
		c-0.688-0.611-1.715-0.92-3.086-0.92h-3.68v7.025h3.68c1.371,0,2.398-0.309,3.086-0.92c0.684-0.617,1.027-1.48,1.027-2.596
		C217.878,170.547,217.535,169.682,216.851,169.066"/>
	<polygon clip-path="url(#SVGID_2_)" fill="#00B07C" points="256.796,182.705 256.796,190.328 231.88,190.328 231.88,160.355 
		256.24,160.355 256.24,167.977 241.812,167.977 241.812,171.488 254.484,171.488 254.484,178.768 241.812,178.768 241.812,182.705 
			"/>
	<path clip-path="url(#SVGID_2_)" fill="#00B07C" d="M260.695,160.354h14.773c3.338,0,6.285,0.609,8.84,1.822
		s4.539,2.945,5.951,5.205c1.416,2.252,2.119,4.906,2.119,7.959c0,3.059-0.703,5.709-2.119,7.967
		c-1.412,2.254-3.396,3.99-5.951,5.203s-5.502,1.816-8.84,1.816h-14.773V160.354z M275.039,182.447c2.168,0,3.902-0.619,5.201-1.861
		c1.299-1.24,1.949-2.99,1.949-5.246c0-2.252-0.65-4-1.949-5.246c-1.299-1.242-3.033-1.861-5.201-1.861H270.8v14.215H275.039z"/>
	<path clip-path="url(#SVGID_2_)" fill="#2D2D2D" d="M77.486,196.027c0.807,0,1.647,0.043,2.517,0.129
		c0.095,0.018,0.143,0.063,0.143,0.139v0.441c0,0.104-0.045,0.156-0.13,0.156h-2.854c-0.653,0-1.132,0.102-1.439,0.311
		c-0.305,0.205-0.459,0.537-0.459,0.994v0.203c0,0.391,0.075,0.689,0.219,0.895c0.147,0.205,0.427,0.395,0.841,0.568l2.943,1.236
		c0.516,0.227,0.875,0.514,1.079,0.867c0.201,0.352,0.303,0.791,0.303,1.318v0.385c0,0.732-0.219,1.27-0.66,1.615
		c-0.197,0.146-0.447,0.262-0.748,0.348c-0.481,0.119-1.098,0.182-1.846,0.182c-1.162,0-2.208-0.045-3.138-0.143
		c-0.087,0-0.129-0.051-0.129-0.156v-0.424c0-0.092,0.052-0.143,0.154-0.143h3.422c0.672,0,1.167-0.098,1.485-0.291
		c0.318-0.193,0.479-0.525,0.479-1v-0.285c0-0.359-0.074-0.664-0.219-0.918c-0.147-0.248-0.409-0.453-0.788-0.619l-3.163-1.305
		c-0.329-0.135-0.591-0.318-0.788-0.541c-0.182-0.223-0.299-0.447-0.355-0.67c-0.057-0.227-0.084-0.52-0.084-0.879v-0.283
		c0-0.691,0.201-1.205,0.606-1.551C75.402,196.219,76.271,196.027,77.486,196.027"/>
	<path clip-path="url(#SVGID_2_)" fill="#2D2D2D" d="M87.686,202.252c0,0.783-0.038,1.381-0.116,1.799s-0.225,0.766-0.438,1.041
		c-0.207,0.275-0.485,0.465-0.833,0.566c-0.348,0.107-0.847,0.156-1.492,0.156c-1.18,0-1.955-0.234-2.325-0.697
		c-0.36-0.473-0.541-1.428-0.541-2.865c0-1.439,0.181-2.389,0.541-2.857c0.371-0.461,1.146-0.695,2.325-0.695
		s1.955,0.234,2.325,0.695C87.501,199.852,87.686,200.807,87.686,202.252 M84.806,199.527c-0.81,0-1.338,0.176-1.587,0.527
		c-0.234,0.354-0.349,1.086-0.349,2.197c0,1.125,0.115,1.863,0.349,2.205c0.249,0.355,0.777,0.533,1.587,0.533
		c0.828,0,1.354-0.178,1.589-0.533c0.24-0.342,0.361-1.08,0.361-2.205c0-1.121-0.121-1.852-0.361-2.197
		C86.161,199.703,85.634,199.527,84.806,199.527"/>
	<path clip-path="url(#SVGID_2_)" fill="#2D2D2D" d="M89.558,196.092h0.608c0.111,0,0.167,0.051,0.167,0.152v9.336
		c0,0.113-0.056,0.17-0.167,0.17h-0.608c-0.111,0-0.168-0.057-0.168-0.17v-9.336C89.39,196.143,89.446,196.092,89.558,196.092"/>
	<path clip-path="url(#SVGID_2_)" fill="#2D2D2D" d="M92.748,196.197c0.395,0,0.592,0.197,0.592,0.592
		c0,0.414-0.197,0.619-0.592,0.619c-0.414,0-0.621-0.205-0.621-0.619C92.127,196.395,92.334,196.197,92.748,196.197 M92.437,198.766
		h0.607c0.111,0,0.167,0.055,0.167,0.168v6.646c0,0.113-0.056,0.17-0.167,0.17h-0.607c-0.111,0-0.167-0.057-0.167-0.17v-6.646
		C92.27,198.82,92.326,198.766,92.437,198.766"/>
	<path clip-path="url(#SVGID_2_)" fill="#2D2D2D" d="M97.782,198.699c0.826,0,1.464,0.031,1.912,0.09
		c0.104,0.01,0.154,0.066,0.154,0.168v0.4c0,0.111-0.055,0.17-0.168,0.17h-1.897c-0.809,0-1.339,0.176-1.587,0.527
		c-0.233,0.354-0.349,1.086-0.349,2.197c0,1.125,0.116,1.863,0.349,2.205c0.249,0.355,0.778,0.529,1.587,0.529h1.897
		c0.113,0,0.168,0.057,0.168,0.168v0.402c0,0.098-0.05,0.148-0.154,0.168c-0.534,0.059-1.17,0.088-1.912,0.088
		c-1.179,0-1.953-0.232-2.324-0.695c-0.362-0.473-0.542-1.428-0.542-2.865c0-1.439,0.18-2.389,0.542-2.857
		C95.83,198.934,96.604,198.699,97.782,198.699"/>
	<path clip-path="url(#SVGID_2_)" fill="#2D2D2D" d="M101.76,196.197c0.395,0,0.594,0.197,0.594,0.592
		c0,0.414-0.199,0.619-0.594,0.619c-0.414,0-0.622-0.205-0.622-0.619C101.139,196.395,101.347,196.197,101.76,196.197
		 M101.45,198.766h0.606c0.112,0,0.167,0.055,0.167,0.168v6.646c0,0.113-0.056,0.17-0.167,0.17h-0.606
		c-0.112,0-0.168-0.057-0.168-0.17v-6.646C101.281,198.82,101.337,198.766,101.45,198.766"/>
	<path clip-path="url(#SVGID_2_)" fill="#2D2D2D" d="M104.573,196.957l0.607-0.143c0.129-0.045,0.195,0.006,0.195,0.143v1.809h1.433
		c0.111,0,0.167,0.055,0.167,0.168v0.451c0,0.104-0.056,0.152-0.167,0.152h-1.433v4.729c0,0.293,0.054,0.484,0.161,0.58
		c0.107,0.094,0.332,0.141,0.677,0.141h0.684c0.122,0,0.182,0.053,0.182,0.156v0.438c0,0.088-0.052,0.145-0.154,0.17
		c-0.198,0.043-0.433,0.063-0.7,0.063c-0.437,0-0.777-0.035-1.019-0.104c-0.516-0.162-0.775-0.578-0.775-1.252v-4.92h-0.722
		c-0.113,0-0.17-0.049-0.17-0.152v-0.451c0-0.113,0.057-0.168,0.17-0.168h0.722v-1.641
		C104.432,197.037,104.479,196.982,104.573,196.957"/>
	<path clip-path="url(#SVGID_2_)" fill="#2D2D2D" d="M110.332,198.699c0.956,0,1.667,0.158,2.138,0.469
		c0.469,0.318,0.704,0.826,0.704,1.533v4.518c0,0.164-0.079,0.281-0.234,0.338c-0.463,0.172-1.38,0.258-2.747,0.258
		c-0.879,0-1.492-0.143-1.834-0.426c-0.354-0.303-0.529-0.838-0.529-1.615c0-0.682,0.171-1.17,0.518-1.465
		c0.342-0.299,0.889-0.443,1.638-0.443h2.26v-1.025c0-0.463-0.154-0.797-0.459-1.004c-0.306-0.205-0.79-0.309-1.454-0.309h-1.742
		c-0.111,0-0.168-0.059-0.168-0.17V199c0-0.098,0.052-0.16,0.155-0.184C109.11,198.74,109.696,198.699,110.332,198.699
		 M112.245,204.83v-2.154h-2.26c-0.43,0-0.742,0.084-0.936,0.252c-0.194,0.172-0.291,0.449-0.291,0.846
		c0,0.477,0.118,0.795,0.354,0.971c0.239,0.172,0.664,0.256,1.286,0.256C111.216,205,111.831,204.947,112.245,204.83"/>
	<path clip-path="url(#SVGID_2_)" fill="#2D2D2D" d="M119.591,199.527h-1.898c-0.81,0-1.339,0.176-1.588,0.527
		c-0.235,0.354-0.351,1.086-0.351,2.197c0,1.125,0.116,1.863,0.351,2.205c0.249,0.355,0.778,0.533,1.588,0.533h1.898
		c0.111,0,0.168,0.053,0.168,0.164v0.402c0,0.096-0.052,0.148-0.156,0.168c-0.508,0.049-1.038,0.08-1.589,0.09
		c0.104,0.412,0.156,0.762,0.156,1.045c0,0.371-0.087,0.627-0.257,0.77c-0.174,0.141-0.461,0.215-0.867,0.215
		c-0.258,0-0.49-0.031-0.696-0.09c-0.095-0.045-0.143-0.117-0.143-0.209v-0.324c0-0.111,0.057-0.168,0.168-0.168h0.491
		c0.259,0,0.427-0.027,0.503-0.082c0.079-0.057,0.116-0.186,0.116-0.381c0-0.162-0.042-0.424-0.129-0.775
		c-1.041-0.043-1.722-0.303-2.039-0.775c-0.329-0.48-0.492-1.41-0.492-2.787c0-1.439,0.182-2.389,0.543-2.857
		c0.37-0.461,1.144-0.695,2.325-0.695c0.825,0,1.463,0.031,1.91,0.092c0.104,0.008,0.156,0.064,0.156,0.166v0.4
		C119.76,199.469,119.702,199.527,119.591,199.527"/>
	<path clip-path="url(#SVGID_2_)" fill="#2D2D2D" d="M126.705,202.252c0,0.783-0.038,1.381-0.116,1.799
		c-0.078,0.418-0.224,0.766-0.438,1.041c-0.207,0.275-0.486,0.465-0.833,0.566c-0.348,0.107-0.847,0.156-1.493,0.156
		c-1.18,0-1.955-0.234-2.324-0.697c-0.361-0.473-0.542-1.428-0.542-2.865c0-1.439,0.181-2.389,0.542-2.857
		c0.369-0.461,1.144-0.695,2.324-0.695c1.18,0,1.956,0.234,2.325,0.695C126.521,199.852,126.705,200.807,126.705,202.252
		 M122.975,196.363c0.17,0,0.463,0.1,0.878,0.299c0.386,0.186,0.659,0.279,0.813,0.279c0.163,0,0.286-0.029,0.369-0.096
		c0.081-0.061,0.161-0.193,0.239-0.391c0.052-0.113,0.121-0.16,0.207-0.133l0.231,0.055c0.113,0.033,0.155,0.119,0.13,0.258
		c-0.138,0.447-0.285,0.754-0.439,0.916c-0.146,0.156-0.38,0.234-0.698,0.234c-0.215,0-0.516-0.098-0.903-0.287
		c-0.414-0.197-0.68-0.295-0.8-0.295c-0.165,0-0.288,0.035-0.368,0.104c-0.081,0.068-0.161,0.199-0.239,0.4
		c-0.052,0.111-0.12,0.152-0.206,0.129l-0.234-0.066c-0.112-0.037-0.156-0.115-0.128-0.242c0.139-0.469,0.285-0.775,0.439-0.932
		C122.416,196.439,122.655,196.363,122.975,196.363 M123.825,199.527c-0.808,0-1.338,0.176-1.587,0.527
		c-0.233,0.354-0.348,1.086-0.348,2.197c0,1.125,0.115,1.863,0.348,2.205c0.249,0.355,0.779,0.533,1.587,0.533
		c0.827,0,1.355-0.178,1.589-0.533c0.241-0.342,0.361-1.08,0.361-2.205c0-1.121-0.121-1.852-0.361-2.197
		C125.181,199.703,124.652,199.527,123.825,199.527"/>
	<path clip-path="url(#SVGID_2_)" fill="#2D2D2D" d="M130.992,198.699c1.101,0,1.828,0.221,2.181,0.658
		c0.371,0.447,0.559,1.334,0.569,2.662v0.371c0,0.131-0.024,0.219-0.071,0.26c-0.047,0.043-0.159,0.064-0.33,0.064h-4.222
		c0.015,0.922,0.146,1.531,0.386,1.82c0.251,0.303,0.744,0.455,1.486,0.455h2.027c0.112,0,0.167,0.053,0.167,0.164v0.402
		c0,0.096-0.052,0.148-0.156,0.168c-0.533,0.059-1.212,0.09-2.039,0.09c-0.622,0-1.104-0.049-1.454-0.156
		c-0.348-0.102-0.625-0.291-0.831-0.566c-0.2-0.275-0.338-0.627-0.413-1.053c-0.079-0.424-0.119-1.021-0.119-1.787
		c0-1.43,0.177-2.383,0.532-2.857C129.067,198.934,129.83,198.699,130.992,198.699 M130.992,199.527
		c-0.768,0-1.266,0.152-1.498,0.463c-0.241,0.303-0.366,0.932-0.375,1.885h3.68c-0.008-0.953-0.128-1.588-0.361-1.895
		C132.212,199.678,131.732,199.527,130.992,199.527"/>
	<path clip-path="url(#SVGID_2_)" fill="#2D2D2D" d="M137.446,198.699c0.844,0,1.511,0.031,2.002,0.09
		c0.103,0.01,0.154,0.066,0.154,0.168v0.4c0,0.111-0.055,0.17-0.167,0.17h-2.35c-0.749,0-1.124,0.256-1.124,0.775v0.203
		c0,0.242,0.064,0.445,0.193,0.609c0.13,0.16,0.353,0.309,0.671,0.439l1.82,0.734c0.483,0.197,0.809,0.426,0.976,0.684
		c0.168,0.258,0.251,0.607,0.251,1.049v0.152c0,0.654-0.189,1.094-0.568,1.314c-0.369,0.217-1.025,0.324-1.961,0.324
		c-0.904,0-1.653-0.035-2.249-0.104c-0.103-0.008-0.153-0.055-0.153-0.152v-0.402c0-0.111,0.05-0.168,0.153-0.168h2.273
		c0.62,0,1.039-0.053,1.252-0.16c0.217-0.109,0.324-0.324,0.324-0.652v-0.168c0-0.232-0.06-0.42-0.175-0.57
		c-0.114-0.143-0.314-0.275-0.601-0.396l-1.936-0.775c-0.8-0.326-1.201-0.918-1.201-1.77v-0.285c0-0.516,0.173-0.895,0.517-1.137
		c0.131-0.092,0.318-0.176,0.567-0.244C136.462,198.744,136.905,198.699,137.446,198.699"/>
	<path clip-path="url(#SVGID_2_)" fill="#2D2D2D" d="M149.095,196.092h0.605c0.111,0,0.168,0.057,0.168,0.166v9.154
		c0,0.111-0.06,0.178-0.183,0.197c-0.876,0.133-1.75,0.205-2.617,0.205c-1.182,0-1.95-0.229-2.313-0.684
		c-0.352-0.473-0.529-1.434-0.529-2.879c0-1.104,0.103-1.932,0.311-2.48c0.188-0.414,0.474-0.689,0.851-0.832
		c0.38-0.145,0.969-0.223,1.771-0.24c0.724,0,1.317,0.027,1.782,0.078v-2.52C148.939,196.148,148.989,196.092,149.095,196.092
		 M148.939,204.861v-5.334h-1.782c-0.871,0-1.421,0.172-1.651,0.514c-0.226,0.346-0.337,1.078-0.337,2.193
		c0,1.146,0.106,1.893,0.323,2.236c0.216,0.344,0.74,0.52,1.576,0.52C147.688,204.99,148.311,204.947,148.939,204.861"/>
	<path clip-path="url(#SVGID_2_)" fill="#2D2D2D" d="M154.375,198.699c1.102,0,1.83,0.221,2.182,0.658
		c0.371,0.447,0.559,1.334,0.57,2.662v0.371c0,0.131-0.027,0.219-0.074,0.26c-0.047,0.043-0.156,0.064-0.328,0.064h-4.223
		c0.018,0.922,0.146,1.531,0.389,1.82c0.248,0.303,0.744,0.455,1.484,0.455h2.027c0.111,0,0.168,0.053,0.168,0.164v0.402
		c0,0.096-0.053,0.148-0.156,0.168c-0.533,0.059-1.213,0.09-2.039,0.09c-0.619,0-1.104-0.049-1.453-0.156
		c-0.348-0.102-0.627-0.291-0.832-0.566c-0.199-0.275-0.337-0.627-0.412-1.053c-0.079-0.424-0.118-1.021-0.118-1.787
		c0-1.43,0.177-2.383,0.53-2.857C152.451,198.934,153.212,198.699,154.375,198.699 M154.375,199.527
		c-0.766,0-1.266,0.152-1.498,0.463c-0.238,0.303-0.365,0.932-0.375,1.885h3.682c-0.01-0.953-0.129-1.588-0.361-1.895
		C155.595,199.678,155.117,199.527,154.375,199.527"/>
	<path clip-path="url(#SVGID_2_)" fill="#2D2D2D" d="M162.07,196.092h5.836c0.113,0,0.17,0.051,0.17,0.152v0.545
		c0,0.111-0.057,0.168-0.17,0.168h-5.037v3.705h4.572c0.113,0,0.166,0.051,0.166,0.158v0.537c0,0.115-0.053,0.172-0.166,0.172
		h-4.572v3.354h5.037c0.113,0,0.17,0.053,0.17,0.156v0.541c0,0.113-0.057,0.17-0.17,0.17h-5.836c-0.129,0-0.191-0.064-0.191-0.193
		v-9.271C161.878,196.156,161.941,196.092,162.07,196.092"/>
	<path clip-path="url(#SVGID_2_)" fill="#2D2D2D" d="M176.156,198.684c0.621,0,1.082,0.033,1.389,0.094s0.58,0.188,0.822,0.387
		c0.25,0.195,0.418,0.484,0.508,0.857c0.092,0.375,0.137,0.916,0.137,1.623l-0.014,3.936c0,0.113-0.057,0.17-0.168,0.17h-0.582
		c-0.109,0-0.166-0.057-0.166-0.17v-3.936c0-0.975-0.139-1.574-0.414-1.809c-0.154-0.137-0.32-0.225-0.498-0.264
		c-0.176-0.039-0.463-0.061-0.857-0.061c-0.637,0-1.219,0.051-1.744,0.143c0.182,0.438,0.27,1.082,0.27,1.924l-0.023,4.002
		c0,0.113-0.049,0.17-0.145,0.17h-0.604c-0.115,0-0.168-0.057-0.168-0.17v-3.988c0-0.715-0.082-1.246-0.244-1.588
		c-0.07-0.143-0.189-0.252-0.363-0.324c-0.232-0.102-0.619-0.152-1.162-0.152h-1.523v6.053c0,0.113-0.051,0.17-0.156,0.17h-0.604
		c-0.113,0-0.168-0.057-0.168-0.17v-6.531c0-0.105,0.055-0.158,0.168-0.17c0.764-0.119,1.475-0.18,2.129-0.18
		c0.893,0,1.57,0.121,2.025,0.361C174.765,198.811,175.486,198.684,176.156,198.684"/>
	<path clip-path="url(#SVGID_2_)" fill="#2D2D2D" d="M183.66,198.699c1.186,0,1.953,0.234,2.299,0.695
		c0.361,0.469,0.541,1.432,0.541,2.895c0,1.137-0.107,1.961-0.324,2.465c-0.154,0.396-0.438,0.672-0.852,0.826
		c-0.414,0.156-0.998,0.234-1.756,0.234c-0.705,0-1.295-0.025-1.77-0.078v2.375c0,0.111-0.053,0.172-0.152,0.172h-0.609
		c-0.111,0-0.168-0.061-0.168-0.172v-9.049c0-0.105,0.061-0.17,0.18-0.193C181.884,198.756,182.757,198.699,183.66,198.699
		 M183.66,199.527h-1.861v5.369c0.611,0.063,1.201,0.094,1.77,0.094c0.869,0,1.416-0.172,1.641-0.506
		c0.234-0.346,0.35-1.078,0.35-2.209c0-1.135-0.113-1.879-0.336-2.232C185.007,199.699,184.486,199.527,183.66,199.527"/>
	<path clip-path="url(#SVGID_2_)" fill="#2D2D2D" d="M190.05,198.699c0.67,0,1.119,0.041,1.342,0.117
		c0.102,0.043,0.154,0.104,0.154,0.182v0.373c0,0.113-0.057,0.164-0.168,0.156h-1.121c-0.422,0-0.715,0.051-0.885,0.152
		c-0.17,0.104-0.254,0.297-0.254,0.582v5.318c0,0.113-0.055,0.17-0.168,0.17h-0.607c-0.109,0-0.166-0.057-0.166-0.17v-5.51
		c0-0.498,0.16-0.859,0.477-1.072c0.131-0.088,0.293-0.152,0.492-0.195C189.421,198.734,189.722,198.699,190.05,198.699"/>
	<path clip-path="url(#SVGID_2_)" fill="#2D2D2D" d="M195.304,198.699c1.104,0,1.83,0.221,2.184,0.658
		c0.369,0.447,0.561,1.334,0.568,2.662v0.371c0,0.131-0.023,0.219-0.072,0.26c-0.049,0.043-0.156,0.064-0.328,0.064h-4.223
		c0.016,0.922,0.145,1.531,0.389,1.82c0.248,0.303,0.74,0.451,1.482,0.451h2.027c0.109,0,0.168,0.057,0.168,0.168v0.402
		c0,0.098-0.053,0.148-0.154,0.168c-0.537,0.059-1.213,0.088-2.041,0.088c-0.619,0-1.102-0.047-1.451-0.154
		c-0.352-0.102-0.627-0.291-0.832-0.566c-0.201-0.275-0.338-0.625-0.414-1.053c-0.08-0.424-0.117-1.021-0.117-1.787
		c0-1.43,0.176-2.381,0.531-2.857C193.38,198.934,194.142,198.699,195.304,198.699 M195.304,199.527
		c-0.766,0-1.262,0.152-1.498,0.463c-0.24,0.303-0.365,0.932-0.373,1.885h3.682c-0.012-0.953-0.131-1.588-0.363-1.898
		C196.527,199.678,196.046,199.527,195.304,199.527 M195.746,196.092h0.811c0.078,0,0.119,0.041,0.119,0.115v0.105
		c0,0.051-0.02,0.094-0.053,0.127l-1.602,1.549c-0.043,0.051-0.1,0.059-0.17,0.014l-0.166-0.143
		c-0.061-0.041-0.072-0.096-0.039-0.15l0.957-1.541C195.626,196.117,195.675,196.092,195.746,196.092"/>
	<path clip-path="url(#SVGID_2_)" fill="#2D2D2D" d="M201.763,198.699c0.842,0,1.51,0.031,2.002,0.09
		c0.102,0.01,0.15,0.066,0.15,0.168v0.4c0,0.111-0.057,0.17-0.166,0.17h-2.348c-0.75,0-1.125,0.256-1.125,0.775v0.203
		c0,0.242,0.064,0.445,0.191,0.609c0.131,0.16,0.354,0.309,0.672,0.439l1.822,0.734c0.48,0.197,0.807,0.426,0.975,0.684
		s0.25,0.607,0.25,1.049v0.152c0,0.654-0.186,1.094-0.566,1.314c-0.371,0.217-1.023,0.324-1.963,0.324
		c-0.904,0-1.652-0.035-2.248-0.104c-0.102-0.008-0.154-0.055-0.154-0.152v-0.402c0-0.111,0.053-0.168,0.154-0.168h2.273
		c0.619,0,1.039-0.053,1.25-0.16c0.219-0.109,0.324-0.324,0.324-0.652v-0.168c0-0.232-0.057-0.42-0.172-0.57
		c-0.117-0.143-0.316-0.275-0.602-0.396l-1.936-0.775c-0.801-0.326-1.201-0.918-1.201-1.77v-0.285c0-0.516,0.172-0.895,0.516-1.137
		c0.129-0.092,0.32-0.176,0.568-0.244C200.775,198.744,201.218,198.699,201.763,198.699"/>
	<path clip-path="url(#SVGID_2_)" fill="#2D2D2D" d="M206.15,196.957l0.607-0.143c0.131-0.045,0.195,0.006,0.195,0.143v1.809h1.432
		c0.113,0,0.168,0.055,0.168,0.168v0.451c0,0.104-0.055,0.152-0.168,0.152h-1.432v4.729c0,0.293,0.051,0.484,0.158,0.58
		c0.109,0.094,0.334,0.141,0.68,0.141h0.686c0.119,0,0.178,0.053,0.178,0.156v0.438c0,0.088-0.049,0.145-0.152,0.17
		c-0.199,0.043-0.432,0.063-0.697,0.063c-0.439,0-0.779-0.035-1.021-0.104c-0.516-0.162-0.771-0.578-0.771-1.252v-4.92h-0.727
		c-0.109,0-0.166-0.049-0.166-0.152v-0.451c0-0.113,0.057-0.168,0.166-0.168h0.727v-1.641
		C206.011,197.037,206.054,196.982,206.15,196.957"/>
	<path clip-path="url(#SVGID_2_)" fill="#2D2D2D" d="M210.347,196.197c0.398,0,0.596,0.197,0.596,0.592
		c0,0.414-0.197,0.619-0.596,0.619c-0.412,0-0.619-0.205-0.619-0.619C209.728,196.395,209.935,196.197,210.347,196.197
		 M210.039,198.766h0.605c0.113,0,0.168,0.055,0.168,0.168v6.646c0,0.113-0.055,0.17-0.168,0.17h-0.605
		c-0.111,0-0.168-0.057-0.168-0.17v-6.646C209.871,198.82,209.927,198.766,210.039,198.766"/>
	<path clip-path="url(#SVGID_2_)" fill="#2D2D2D" d="M219.218,198.684c0.619,0,1.08,0.033,1.385,0.094
		c0.309,0.061,0.58,0.188,0.822,0.387c0.25,0.195,0.42,0.484,0.512,0.857c0.09,0.375,0.135,0.916,0.135,1.623l-0.014,3.936
		c0,0.113-0.059,0.17-0.168,0.17h-0.58c-0.111,0-0.166-0.057-0.166-0.17v-3.936c0-0.975-0.141-1.574-0.416-1.809
		c-0.154-0.137-0.32-0.225-0.498-0.264c-0.176-0.039-0.461-0.061-0.857-0.061c-0.637,0-1.217,0.051-1.744,0.143
		c0.18,0.438,0.271,1.082,0.271,1.924l-0.023,4.002c0,0.113-0.049,0.17-0.143,0.17h-0.607c-0.113,0-0.168-0.057-0.168-0.17v-3.988
		c0-0.715-0.082-1.246-0.244-1.588c-0.07-0.143-0.189-0.252-0.365-0.324c-0.23-0.102-0.619-0.152-1.16-0.152h-1.523v6.053
		c0,0.113-0.051,0.17-0.158,0.17h-0.604c-0.111,0-0.168-0.057-0.168-0.17v-6.531c0-0.105,0.057-0.158,0.168-0.17
		c0.766-0.119,1.479-0.18,2.131-0.18c0.895,0,1.57,0.121,2.027,0.361C217.828,198.811,218.546,198.684,219.218,198.684"/>
	<path clip-path="url(#SVGID_2_)" fill="#2D2D2D" d="M229.457,202.252c0,0.783-0.041,1.381-0.115,1.799
		c-0.076,0.418-0.225,0.766-0.439,1.041c-0.205,0.275-0.484,0.465-0.832,0.566c-0.352,0.107-0.846,0.156-1.494,0.156
		c-1.178,0-1.953-0.234-2.322-0.697c-0.365-0.473-0.541-1.428-0.541-2.865c0-1.439,0.176-2.389,0.541-2.857
		c0.369-0.461,1.145-0.695,2.322-0.695c1.18,0,1.955,0.234,2.326,0.695C229.271,199.852,229.457,200.807,229.457,202.252
		 M226.576,199.527c-0.809,0-1.338,0.176-1.588,0.527c-0.23,0.354-0.348,1.086-0.348,2.197c0,1.125,0.117,1.863,0.348,2.205
		c0.25,0.355,0.779,0.533,1.588,0.533c0.828,0,1.357-0.178,1.59-0.533c0.242-0.342,0.361-1.08,0.361-2.205
		c0-1.121-0.119-1.852-0.361-2.197C227.933,199.703,227.404,199.527,226.576,199.527"/>
	<path clip-path="url(#SVGID_2_)" fill="#2D2D2D" d="M233.302,198.699c0.844,0,1.512,0.031,2.004,0.09
		c0.104,0.01,0.156,0.066,0.156,0.168v0.4c0,0.111-0.057,0.17-0.17,0.17h-2.35c-0.75,0-1.123,0.256-1.123,0.775v0.203
		c0,0.242,0.064,0.445,0.193,0.609c0.131,0.16,0.354,0.309,0.674,0.439l1.818,0.734c0.48,0.197,0.807,0.426,0.975,0.684
		s0.252,0.607,0.252,1.049v0.152c0,0.654-0.188,1.094-0.568,1.314c-0.369,0.217-1.025,0.324-1.961,0.324
		c-0.906,0-1.654-0.035-2.246-0.104c-0.105-0.008-0.158-0.055-0.158-0.152v-0.402c0-0.111,0.053-0.168,0.158-0.168h2.271
		c0.617,0,1.035-0.053,1.25-0.16c0.217-0.109,0.322-0.324,0.322-0.652v-0.168c0-0.232-0.057-0.42-0.174-0.57
		c-0.115-0.143-0.313-0.275-0.598-0.396l-1.939-0.775c-0.799-0.326-1.199-0.918-1.199-1.77v-0.285c0-0.516,0.172-0.895,0.518-1.137
		c0.127-0.092,0.318-0.176,0.566-0.244C232.318,198.744,232.763,198.699,233.302,198.699"/>
	<path clip-path="url(#SVGID_2_)" fill="#2D2D2D" d="M120.354,111.847h-0.734c-4.26,0-7.711,3.453-7.711,7.711v12.165v11.259
		c0,4.26,3.451,7.713,7.711,7.713h0.734c4.258,0,7.711-3.453,7.711-7.713v-11.259v-12.165
		C128.065,115.3,124.612,111.847,120.354,111.847"/>
	<path clip-path="url(#SVGID_2_)" fill="#2D2D2D" d="M120.354,94.304h-0.734c-4.26,0-7.711,3.452-7.711,7.711
		c0,4.257,3.451,7.711,7.711,7.711h0.734c4.258,0,7.711-3.454,7.711-7.711C128.065,97.756,124.612,94.304,120.354,94.304"/>
	<path clip-path="url(#SVGID_2_)" fill="#2AAE75" d="M154.63,111.604c2.965-1.352,4.953-4.209,4.953-7.467
		c0-5.908-6.096-9.803-11.491-7.392c-9.843,4.399-16.705,14.274-16.705,25.755c0,11.48,6.862,21.356,16.705,25.755
		c5.395,2.412,11.491-1.484,11.491-7.392c0-3.259-1.988-6.114-4.953-7.467c-4.135-1.888-7.015-6.061-7.015-10.896
		S150.495,113.49,154.63,111.604"/>
	<path clip-path="url(#SVGID_2_)" fill="#2AAE75" d="M174.755,96.744c-5.395-2.411-11.49,1.484-11.49,7.392
		c0,3.258,1.988,6.115,4.953,7.467c4.135,1.886,7.014,6.061,7.014,10.896s-2.879,9.008-7.014,10.896
		c-2.965,1.354-4.953,4.208-4.953,7.467c0,5.908,6.096,9.802,11.49,7.392c9.844-4.398,16.705-14.275,16.705-25.755
		C191.46,111.019,184.599,101.144,174.755,96.744"/>
</g>
</svg>
